<svg xmlns="http://www.w3.org/2000/svg" xmlns:xlink="http://www.w3.org/1999/xlink" version="1.1" style="" xml:space="preserve" width="660" height="660"><rect id="backgroundrect" width="100%" height="100%" x="0" y="0" fill="none" stroke="none"/> <g class="currentLayer" style=""><title>Layer 1</title><g id="svg_1" class="" transform="rotate(45 330.9249877929688,362.174560546875) "><path style="fill:#F8B64C" d="M424.967,418.6 l-38.661,-1.045 l1.045,38.661 c1.045,62.694 53.29,113.894 115.984,115.984 l38.661,1.045 l-1.045,-38.661 C538.86,471.89 487.66,419.645 424.967,418.6 z" data-original="#F8B64C" class="" id="svg_2"/><path style="fill:#FFD15C" d="M435.416,439.498 l-27.167,-1.045 l1.045,27.167 c1.045,44.931 38.661,82.547 83.592,83.592 l27.167,1.045 l-1.045,-27.167 C517.963,478.159 480.346,440.543 435.416,439.498 z" data-original="#FFD15C" class="" id="svg_3"/><path style="fill:#FF7058" d="M581.701,415.465 c-5.224,-9.404 -12.539,-17.763 -19.853,-25.078 c-18.808,-18.808 -41.796,-31.347 -66.874,-37.616 c-47.02,-11.494 -99.265,1.045 -135.837,37.616 s-49.11,88.816 -37.616,135.837 c6.269,24.033 18.808,48.065 37.616,66.873 c7.314,7.314 16.718,14.629 25.078,19.853 c-54.335,2.09 -110.759,-17.763 -152.555,-59.559 c-33.437,-33.437 -52.245,-74.188 -58.514,-117.029 c-8.359,-61.649 11.494,-125.388 58.514,-172.408 s111.804,-66.873 172.408,-58.514 c42.841,6.269 84.637,25.078 117.029,58.514 C563.938,304.706 583.7909999999999,361.131 581.701,415.465 z" data-original="#FF7058" class="" id="svg_4"/><path style="fill:#F2F2F2" d="M491.84,416.51 C462.583,237.833 308.983,106.176 118.811,111.4 L81.195,112.445 L80.15,150.061 C74.926,340.233 206.583,493.833 385.26,523.0899999999999 L491.84,416.51 z" data-original="#F2F2F2" class="" id="svg_5"/><g id="svg_6">
	<path style="fill:#40596B" d="M303.75800000000004,500.102 c26.122,10.449 53.29,17.763 81.502,22.988 l105.535,-105.535 c-4.18,-28.212 -12.539,-55.38 -22.988,-81.502 L303.75800000000004,500.102 z" data-original="#40596B" class="" id="svg_7"/>
	<path style="fill:#40596B" d="M243.154,128.119 C204.493,116.625 162.697,110.355 118.811,111.4 L81.195,112.445 L80.15,150.061 c-1.045,43.886 5.224,85.682 16.718,124.343 L243.154,128.119 z" data-original="#40596B" class="" id="svg_8"/>
</g><path style="fill:#F2F2F2" d="M385.26,523.0899999999999 c10.449,2.09 21.943,3.135 32.392,4.18 l77.322,-77.322 c-1.045,-11.494 -2.09,-21.943 -4.18,-32.392 L385.26,523.0899999999999 z" data-original="#F2F2F2" class="" id="svg_9"/><ellipse style="fill:#40596B" cx="254.51499938964844" cy="286.2120056152344" rx="80.45600128173828" ry="80.45600128173828" data-original="#40596B" class="" id="svg_10"/><ellipse style="fill:#84DBFF" cx="254.51499938964844" cy="286.2120056152344" rx="56.42399978637695" ry="56.42399978637695" data-original="#84DBFF" id="svg_11"/><path style="fill:#54C0EB" d="M219.122,258.731 c19.853,-19.853 51.2,-19.853 71.053,0 c18.808,18.808 19.853,49.11 2.09,68.963 c1.045,-1.045 2.09,-1.045 2.09,-2.09 c21.943,-21.943 21.943,-57.469 0,-79.412 s-57.469,-21.943 -79.412,0 s-21.943,57.469 0,79.412 c1.045,1.045 2.09,1.045 2.09,2.09 C200.314,307.841 200.314,277.539 219.122,258.731 z" data-original="#54C0EB" class="active-path" data-old_color="#54C0EB" id="svg_12"/></g></g></svg>