<?xml version="1.0"?>
<svg xmlns="http://www.w3.org/2000/svg" xmlns:xlink="http://www.w3.org/1999/xlink" version="1.1" id="Capa_1" x="0px" y="0px" viewBox="0 0 512 512" style="enable-background:new 0 0 512 512;" xml:space="preserve" width="512px" height="512px" class=""><g><circle style="fill:#E9E9E9" cx="256" cy="256" r="256" data-original="#FE91C2" class="" data-old_color="#FE91C2"/><path style="fill:#B9B9B9" d="M511.513,271.605L375.854,135.946l-232.03,149.14l21.337,21.342l-51.166,91.575l112.268,112.268  C236.02,511.4,245.939,512,256,512C392.143,512,503.446,405.721,511.513,271.605z" data-original="#FE52A2" class="active-path" data-old_color="#FE52A2"/><path style="fill:#57555C" d="M237.858,198.367c-0.332,0-1.331-0.333-1.83-0.5c-2.995-1.332-4.992-4.16-4.992-7.489v-76.381H217.89  c-1.165,0-2.33,0-3.495,0.167c-50.755,1.497-93.412,38.274-99.569,86.699c-3.494,27.458,3.994,54.25,21.134,75.551  c9.485,11.814,21.466,21.133,34.779,27.457c-33.282,13.812-56.745,47.704-56.745,85.812v8.32H314.24V288.727  C314.24,244.13,282.29,206.188,237.858,198.367z" data-original="#57555C"/><path style="fill:#3C3A41" d="M314.24,288.727v109.276h-99.846V114.164c1.165-0.167,2.33-0.167,3.495-0.167h13.146v76.381  c0,3.328,1.997,6.157,4.992,7.489c0.5,0.167,1.498,0.5,1.83,0.5C282.29,206.188,314.24,244.13,314.24,288.727z" data-original="#3C3A41"/><rect x="180.56" y="163.92" style="fill:#2B292C" width="16.641" height="16.641" data-original="#2B292C" class=""/><polygon style="fill:#FCBF29" points="314.795,113.997 214.395,113.997 214.395,180.561 331.436,180.561 331.436,127.496 " data-original="#FCBF29"/><path style="fill:#E61E14" d="M393.441,164.027c-10.387-29.686-38.285-50.03-70.325-50.03h-8.32v66.564h59.712l8.255-7.112  L393.441,164.027z" data-original="#E61E14"/><path style="fill:#FE9923" d="M398,230.484h-16.641c0-9.174-7.467-16.641-16.641-16.641H232.84c-2.519,0-5.001-0.703-7.101-2.094  c-7.004-4.641-11.345-12.863-11.345-21.372V163.92h179.013l2.122,6.07c1.666,5.923,2.47,12.099,2.47,18.892v41.602H398z" data-original="#FE9923" class="" data-old_color="#FE9923"/></g> </svg>
